<svg xmlns="http://www.w3.org/2000/svg" viewBox="0 0 253.01 67.04"><defs><style>.a{fill:#1e417e;}.a,.b,.c{fill-rule:evenodd;}.b{fill:#049bd7;}.c{fill:#a5ce39;}</style></defs><title>NAPAS logo - Brandlogos.net</title><path class="a" d="M392,492.69a59.87,59.87,0,0,1,19.51-3.54c10.49,0,15.26,3.79,14.95,11.78-.27,6.77-4.53,28.53-4.53,28.53H410.75s4.16-22.27,4.16-26.12-5.58-4.19-6.58-4.19a15.24,15.24,0,0,0-6.53,1.26c-.6,3.66-5.19,28.83-5.19,28.83H385.5Z" transform="translate(-385.5 -478.48)"/><path class="a" d="M451,511.69s-6-.37-7.62.27a5.77,5.77,0,0,0-4.1,5.43c0,3.3,3.46,5.27,6.61,5.27a7.72,7.72,0,0,0,3.25-.53C449.86,518.24,451,511.69,451,511.69Zm-18.7-11.1,1.4-8.92a48.39,48.39,0,0,1,13.85-2.52c6.73,0,16.31,1.45,16.31,10.77,0,2.2-4.16,25.9-4.42,28a44.27,44.27,0,0,1-13.92,2.2c-3.2,0-17.25-1-17.25-12.19,0-12.05,13.72-13.58,23.84-12.45.73-2.13,2.26-7.12-6.93-7.12A51.41,51.41,0,0,0,432.28,500.59Z" transform="translate(-385.5 -478.48)"/><path class="a" d="M530.22,511.69s-6-.37-7.62.27a5.77,5.77,0,0,0-4.1,5.43c0,3.3,3.46,5.27,6.61,5.27a7.72,7.72,0,0,0,3.25-.53C529.1,518.24,530.22,511.69,530.22,511.69Zm-18.7-11.1,1.4-8.92a48.39,48.39,0,0,1,13.85-2.52c6.73,0,16.31,1.45,16.31,10.77,0,2.2-4.16,25.9-4.42,28a44.27,44.27,0,0,1-13.92,2.2c-3.2,0-17.25-1-17.25-12.19,0-12.05,13.72-13.58,23.84-12.45.73-2.13,2.26-7.12-6.93-7.12A51.41,51.41,0,0,0,511.53,500.59Z" transform="translate(-385.5 -478.48)"/><path class="a" d="M481.05,500.76s1.91-1.43,6-1.43,7.44,2.46,7.44,7.37-2.2,14.22-10.93,14.22c-1.36,0-5.11-.78-5.82-1.42C478.57,513.88,481.05,500.76,481.05,500.76Zm-9.87-8.25a47.49,47.49,0,0,1,16.22-3.43c2.6,0,18.11.12,18.11,17.4,0,5.45-.59,23.32-21.07,23.32a34.43,34.43,0,0,1-8.17-1.54l-3.07,17.26H461.68Z" transform="translate(-385.5 -478.48)"/><path class="a" d="M575,502.6s1.38-8.11,1.71-9.54a21.18,21.18,0,0,0-12.41-3.92c-4.8,0-16.72,1-16.72,13,0,2.37.33,7.72,7.83,10.65s8.83,2.32,8.83,5.3-3.53,3.31-5.52,3.31-7-.66-12.85-5.46c-.39,4-1.32,8.61-1.49,9.54,2.54,2.32,7,4.58,14.62,4.58s16.61-3.37,16.61-13.3c0-3.26-.44-8.72-13.52-12.25-2.37-.61-3.26-2.15-3.26-3.42s1-3,5.35-3A16.37,16.37,0,0,1,575,502.6Z" transform="translate(-385.5 -478.48)"/><polygon class="b" points="253.01 15.67 233.11 15.74 212.7 35.14 232.6 35.07 253.01 15.67"/><polygon class="a" points="236.08 0 216.03 0 216.03 22.83 236.08 33.74 236.08 0"/><polygon class="c" points="198.81 11.49 219.01 11.49 252.06 50.73 232.45 50.73 198.81 11.49"/><polygon class="b" points="206.31 57.64 226.02 57.64 236.08 31.76 223.47 35.08 212.59 42.05 206.31 57.64"/><polygon class="a" points="236.09 31.75 216.22 31.79 196.17 50.85 216.08 50.85 230.5 37.15 236.09 31.75"/></svg>